#N canvas 1178 268 647 665 12;
#X obj 25 58 mtof;
#X obj 25 148 *~;
#X obj 25 185 dac~;
#X obj 25 101 osc~;
#X obj 95 111 line~;
#X obj 67 51 select 0;
#X obj 120 80 / 127;
#X msg 67 80 0 250;
#X obj 25 18 notein;
#X connect 0 0 3 0;
#X connect 1 0 2 0;
#X connect 1 0 2 1;
#X connect 3 0 1 0;
#X connect 4 0 1 1;
#X connect 5 0 7 0;
#X connect 5 1 6 0;
#X connect 6 0 4 0;
#X connect 7 0 4 0;
#X connect 8 0 0 0;
#X connect 8 1 5 0;
